<?xml version="1.0" encoding="UTF-8"?>
<!DOCTYPE svg PUBLIC "-//W3C//DTD SVG 1.1//EN" "http://www.w3.org/Graphics/SVG/1.1/DTD/svg11.dtd">
<svg xmlns="http://www.w3.org/2000/svg" version="1.1" width="24px" height="24px" style="shape-rendering:geometricPrecision; text-rendering:geometricPrecision; image-rendering:optimizeQuality; fill-rule:evenodd; clip-rule:evenodd" xmlns:xlink="http://www.w3.org/1999/xlink">
<g><path style="opacity:0.958" fill="#fed729" d="M 4.5,0.5 C 4.5,0.166667 4.5,-0.166667 4.5,-0.5C 6.83333,-0.5 9.16667,-0.5 11.5,-0.5C 11.5,0.5 11.5,1.5 11.5,2.5C 11.5,4.5 11.5,6.5 11.5,8.5C 11.5,13.5 11.5,18.5 11.5,23.5C 9.16667,23.5 6.83333,23.5 4.5,23.5C 4.35055,22.448 4.51722,21.448 5,20.5C 6.5557,19.4804 7.72237,18.147 8.5,16.5C 8.45728,15.5836 8.12395,14.9169 7.5,14.5C 6.02635,9.85928 5.02635,5.19262 4.5,0.5 Z"/></g>
<g><path style="opacity:1" fill="#fdbc04" d="M 11.5,-0.5 C 13.8333,-0.5 16.1667,-0.5 18.5,-0.5C 18.5,-0.166667 18.5,0.166667 18.5,0.5C 19.1974,5.64034 18.1974,10.307 15.5,14.5C 14.8761,14.9169 14.5427,15.5836 14.5,16.5C 15.2776,18.147 16.4443,19.4804 18,20.5C 18.4828,21.448 18.6495,22.448 18.5,23.5C 16.1667,23.5 13.8333,23.5 11.5,23.5C 11.5,18.5 11.5,13.5 11.5,8.5C 12.1174,8.61071 12.6174,8.94404 13,9.5C 13.4396,7.92375 14.273,6.59042 15.5,5.5C 13.993,4.61135 12.6597,3.61135 11.5,2.5C 11.5,1.5 11.5,0.5 11.5,-0.5 Z"/></g>
<g><path style="opacity:0.889" fill="#ff9401" d="M 2.5,0.5 C 3.16667,0.5 3.83333,0.5 4.5,0.5C 5.02635,5.19262 6.02635,9.85928 7.5,14.5C 7.71901,15.675 7.38568,16.675 6.5,17.5C 5.16667,16.1667 3.83333,16.1667 2.5,17.5C 1.52577,15.2573 1.19244,12.924 1.5,10.5C 1.38741,7.31753 1.72074,3.98419 2.5,0.5 Z"/></g>
<g><path style="opacity:0.882" fill="#ff641a" d="M 18.5,0.5 C 19.1667,0.5 19.8333,0.5 20.5,0.5C 21.2793,3.98419 21.6126,7.31753 21.5,10.5C 21.8076,12.924 21.4742,15.2573 20.5,17.5C 19.1667,16.1667 17.8333,16.1667 16.5,17.5C 15.6143,16.675 15.281,15.675 15.5,14.5C 18.1974,10.307 19.1974,5.64034 18.5,0.5 Z"/></g>
<g><path style="opacity:0.719" fill="#fdbb01" d="M 20.5,0.5 C 21.5,0.5 22.5,0.5 23.5,0.5C 23.5,3.5 23.5,6.5 23.5,9.5C 22.8333,9.83333 22.1667,10.1667 21.5,10.5C 21.6126,7.31753 21.2793,3.98419 20.5,0.5 Z"/></g>
<g><path style="opacity:0.752" fill="#ffd72b" d="M -0.5,0.5 C 0.5,0.5 1.5,0.5 2.5,0.5C 1.72074,3.98419 1.38741,7.31753 1.5,10.5C 0.833333,10.1667 0.166667,9.83333 -0.5,9.5C -0.5,6.5 -0.5,3.5 -0.5,0.5 Z"/></g>
<g><path style="opacity:1" fill="#fe9600" d="M 11.5,2.5 C 12.6597,3.61135 13.993,4.61135 15.5,5.5C 14.273,6.59042 13.4396,7.92375 13,9.5C 12.6174,8.94404 12.1174,8.61071 11.5,8.5C 11.5,6.5 11.5,4.5 11.5,2.5 Z"/></g>
</svg>
