<?xml version="1.0" encoding="UTF-8"?>
<!DOCTYPE svg PUBLIC "-//W3C//DTD SVG 1.1//EN" "http://www.w3.org/Graphics/SVG/1.1/DTD/svg11.dtd">
<svg xmlns="http://www.w3.org/2000/svg" version="1.1" width="512px" height="512px" style="shape-rendering:geometricPrecision; text-rendering:geometricPrecision; image-rendering:optimizeQuality; fill-rule:evenodd; clip-rule:evenodd" xmlns:xlink="http://www.w3.org/1999/xlink">
<g><path style="opacity:0.962" fill="#fefffe" d="M 237.5,14.5 C 332.117,11.0576 405.95,48.0576 459,125.5C 502.161,197.788 508.161,273.121 477,351.5C 436.038,437.745 367.871,485.912 272.5,496C 189.001,499.817 120.501,469.984 67,406.5C 17.0837,340.702 2.75037,267.702 24,187.5C 51.6044,102.229 108.438,47.0624 194.5,22C 208.823,18.6138 223.157,16.1138 237.5,14.5 Z M 240.5,45.5 C 318.787,43.2311 381.287,73.2311 428,135.5C 468.405,197.263 476.071,262.929 451,332.5C 416.18,411.63 355.68,455.796 269.5,465C 183.583,467.135 118.083,431.968 73,359.5C 36.3335,290.164 36.3335,220.831 73,151.5C 111.305,88.7492 167.138,53.4159 240.5,45.5 Z"/></g>
<g><path style="opacity:0.962" fill="#fefffe" d="M 217.5,104.5 C 242.836,104.333 268.169,104.5 293.5,105C 335.379,112.547 358.046,137.547 361.5,180C 359.271,218.214 339.938,242.88 303.5,254C 287.549,255.422 271.549,255.922 255.5,255.5C 255.5,275.833 255.5,296.167 255.5,316.5C 245.167,316.5 234.833,316.5 224.5,316.5C 224.333,295.497 224.5,274.497 225,253.5C 226.286,239.217 233.786,230.05 247.5,226C 263.132,224.784 278.799,224.117 294.5,224C 316.735,217.761 328.735,203.094 330.5,180C 327.917,155.469 314.584,140.802 290.5,136C 267.167,135.333 243.833,135.333 220.5,136C 196.262,140.947 182.929,155.78 180.5,180.5C 170.167,180.5 159.833,180.5 149.5,180.5C 152.9,137.774 175.566,112.44 217.5,104.5 Z"/></g>
<g><path style="opacity:0.961" fill="#fefffe" d="M 233.5,345.5 C 251.615,343.296 263.782,350.629 270,367.5C 273.274,387.568 265.107,400.401 245.5,406C 224.429,406.932 212.429,396.932 209.5,376C 210.743,360.278 218.743,350.111 233.5,345.5 Z"/></g>
</svg>
