<?xml version="1.0" encoding="UTF-8"?>
<!DOCTYPE svg PUBLIC "-//W3C//DTD SVG 1.1//EN" "http://www.w3.org/Graphics/SVG/1.1/DTD/svg11.dtd">
<svg xmlns="http://www.w3.org/2000/svg" version="1.1" width="512px" height="512px" style="shape-rendering:geometricPrecision; text-rendering:geometricPrecision; image-rendering:optimizeQuality; fill-rule:evenodd; clip-rule:evenodd" xmlns:xlink="http://www.w3.org/1999/xlink">
<g><path style="opacity:0.964" fill="#000000" d="M 233.5,-0.5 C 248.167,-0.5 262.833,-0.5 277.5,-0.5C 377.805,11.9821 449.305,63.9821 492,155.5C 502.297,180.687 508.797,206.687 511.5,233.5C 511.5,248.167 511.5,262.833 511.5,277.5C 499.018,377.805 447.018,449.305 355.5,492C 330.313,502.297 304.313,508.797 277.5,511.5C 262.833,511.5 248.167,511.5 233.5,511.5C 133.195,499.018 61.6947,447.018 19,355.5C 8.70332,330.313 2.20332,304.313 -0.5,277.5C -0.5,262.833 -0.5,248.167 -0.5,233.5C 11.9821,133.195 63.9821,61.6947 155.5,19C 180.687,8.70332 206.687,2.20332 233.5,-0.5 Z M 234.5,32.5 C 315.729,27.8796 381.896,56.8796 433,119.5C 476.883,179.779 489.216,246.112 470,318.5C 450.323,380.175 411.823,426.008 354.5,456C 302.269,480.722 248.269,485.389 192.5,470C 130.825,450.323 84.9919,411.823 55,354.5C 30.2781,302.269 25.6115,248.269 41,192.5C 60.6774,130.825 99.1774,84.9919 156.5,55C 181.359,43.1227 207.359,35.6227 234.5,32.5 Z"/></g>
<g><path style="opacity:0.977" fill="#000000" d="M 211.5,95.5 C 240.835,95.3334 270.169,95.5 299.5,96C 332.537,102.369 354.371,121.535 365,153.5C 373.739,197.518 358.239,229.685 318.5,250C 314.227,251.535 309.894,252.869 305.5,254C 288.876,255.408 272.209,255.908 255.5,255.5C 255.5,276.833 255.5,298.167 255.5,319.5C 244.833,319.5 234.167,319.5 223.5,319.5C 223.333,295.498 223.5,271.498 224,247.5C 227.167,235 235,227.167 247.5,224C 263.861,223.849 280.195,223.183 296.5,222C 320.392,215.613 333.059,200.113 334.5,175.5C 333.488,152.65 322.155,137.484 300.5,130C 296.227,128.97 291.894,128.303 287.5,128C 266.167,127.333 244.833,127.333 223.5,128C 200.705,129.477 185.538,140.977 178,162.5C 176.805,166.751 176.305,171.085 176.5,175.5C 165.5,175.5 154.5,175.5 143.5,175.5C 144.414,140.501 160.747,115.667 192.5,101C 198.828,98.6729 205.162,96.8396 211.5,95.5 Z"/></g>
<g><path style="opacity:0.967" fill="#000000" d="M 231.5,351.5 C 259.978,349.811 273.145,363.144 271,391.5C 264.395,410.066 251.228,417.899 231.5,415C 212.934,408.395 205.101,395.228 208,375.5C 209.563,369.612 212.396,364.446 216.5,360C 220.978,356.098 225.978,353.265 231.5,351.5 Z"/></g>
</svg>
