<?xml version="1.0" encoding="UTF-8"?>
<!DOCTYPE svg PUBLIC "-//W3C//DTD SVG 1.1//EN" "http://www.w3.org/Graphics/SVG/1.1/DTD/svg11.dtd">
<svg xmlns="http://www.w3.org/2000/svg" version="1.1" width="512px" height="512px" style="shape-rendering:geometricPrecision; text-rendering:geometricPrecision; image-rendering:optimizeQuality; fill-rule:evenodd; clip-rule:evenodd" xmlns:xlink="http://www.w3.org/1999/xlink">
<g><path style="opacity:0.957" fill="#fefffe" d="M 235.5,24.5 C 248.837,24.3334 262.171,24.5001 275.5,25C 302.473,31.3435 314.973,48.5101 313,76.5C 322.497,80.1105 331.831,84.1105 341,88.5C 359.311,67.5705 380.478,64.0705 404.5,78C 414,87.5 423.5,97 433,106.5C 446.93,130.522 443.43,151.689 422.5,170C 426.914,178.906 430.748,188.073 434,197.5C 454.071,195.705 469.737,203.038 481,219.5C 483.593,224.535 485.259,229.868 486,235.5C 486.667,248.833 486.667,262.167 486,275.5C 482.841,294.994 471.674,307.16 452.5,312C 446.5,312.333 440.5,312.667 434.5,313C 430.89,322.497 426.89,331.831 422.5,341C 443.43,359.311 446.93,380.478 433,404.5C 423.5,414 414,423.5 404.5,433C 380.478,446.93 359.311,443.43 341,422.5C 332.094,426.914 322.927,430.748 313.5,434C 315.295,454.071 307.962,469.737 291.5,481C 286.465,483.593 281.132,485.259 275.5,486C 262.167,486.667 248.833,486.667 235.5,486C 208.527,479.657 196.027,462.49 198,434.5C 188.503,430.89 179.169,426.89 170,422.5C 151.689,443.43 130.522,446.93 106.5,433C 97,423.5 87.5,414 78,404.5C 64.0705,380.478 67.5705,359.311 88.5,341C 83.7097,332.25 79.8764,323.084 77,313.5C 56.9294,315.295 41.2627,307.962 30,291.5C 27.4074,286.465 25.7408,281.132 25,275.5C 24.3333,262.167 24.3333,248.833 25,235.5C 28.1595,216.006 39.3261,203.84 58.5,199C 64.5,198.667 70.5,198.333 76.5,198C 79.721,188.338 83.721,179.005 88.5,170C 67.5705,151.689 64.0705,130.522 78,106.5C 87.5,97 97,87.5 106.5,78C 130.522,64.0705 151.689,67.5705 170,88.5C 178.906,84.0856 188.073,80.2523 197.5,77C 195.901,48.8141 208.567,31.3141 235.5,24.5 Z M 237.5,52.5 C 249.505,52.3335 261.505,52.5001 273.5,53C 278.598,54.4329 282.098,57.5995 284,62.5C 284.333,71.5 284.667,80.5 285,89.5C 285.556,94.3893 288.056,97.8893 292.5,100C 308.711,104.182 324.044,110.515 338.5,119C 342.956,119.867 347.289,119.534 351.5,118C 357.864,111.301 364.531,104.968 371.5,99C 376.652,96.8782 381.652,97.2115 386.5,100C 394.667,108.167 402.833,116.333 411,124.5C 413.789,129.348 414.122,134.348 412,139.5C 406.032,146.469 399.699,153.136 393,159.5C 391.979,162.105 391.145,164.772 390.5,167.5C 394.114,176.73 398.281,185.73 403,194.5C 406.201,203.103 409.201,211.769 412,220.5C 414.342,223.754 417.509,225.588 421.5,226C 430.5,226.333 439.5,226.667 448.5,227C 453.4,228.902 456.567,232.402 458,237.5C 458.667,249.5 458.667,261.5 458,273.5C 456.567,278.598 453.4,282.098 448.5,284C 439.5,284.333 430.5,284.667 421.5,285C 416.611,285.556 413.111,288.056 411,292.5C 406.818,308.711 400.485,324.044 392,338.5C 390.467,342.887 390.8,347.22 393,351.5C 399.699,357.864 406.032,364.531 412,371.5C 414.122,376.652 413.789,381.652 411,386.5C 402.833,394.667 394.667,402.833 386.5,411C 381.652,413.789 376.652,414.122 371.5,412C 364.531,406.032 357.864,399.699 351.5,393C 347.289,391.466 342.956,391.133 338.5,392C 323.3,400.621 307.3,407.288 290.5,412C 287.246,414.342 285.412,417.509 285,421.5C 284.667,430.5 284.333,439.5 284,448.5C 282.098,453.4 278.598,456.567 273.5,458C 261.5,458.667 249.5,458.667 237.5,458C 232.402,456.567 228.902,453.4 227,448.5C 226.667,439.5 226.333,430.5 226,421.5C 225.444,416.611 222.944,413.111 218.5,411C 202.289,406.818 186.956,400.485 172.5,392C 168.044,391.133 163.711,391.466 159.5,393C 153.136,399.699 146.469,406.032 139.5,412C 134.348,414.122 129.348,413.789 124.5,411C 116.333,402.833 108.167,394.667 100,386.5C 97.2115,381.652 96.8782,376.652 99,371.5C 104.968,364.531 111.301,357.864 118,351.5C 119.021,348.895 119.855,346.228 120.5,343.5C 117.22,334.938 113.386,326.604 109,318.5C 105.269,309.308 101.936,299.974 99,290.5C 96.6581,287.246 93.4915,285.412 89.5,285C 80.5,284.667 71.5,284.333 62.5,284C 57.5995,282.098 54.4329,278.598 53,273.5C 52.3333,261.5 52.3333,249.5 53,237.5C 54.4329,232.402 57.5995,228.902 62.5,227C 71.5,226.667 80.5,226.333 89.5,226C 94.3893,225.444 97.8893,222.944 100,218.5C 104.573,202.451 110.906,187.118 119,172.5C 120.533,168.113 120.2,163.78 118,159.5C 111.301,153.136 104.968,146.469 99,139.5C 96.8782,134.348 97.2115,129.348 100,124.5C 108.167,116.333 116.333,108.167 124.5,100C 129.348,97.2115 134.348,96.8782 139.5,99C 146.469,104.968 153.136,111.301 159.5,118C 163.711,119.534 168.044,119.867 172.5,119C 187.7,110.379 203.7,103.712 220.5,99C 223.754,96.6581 225.588,93.4915 226,89.5C 226.333,80.5 226.667,71.5 227,62.5C 229.081,57.5837 232.581,54.2504 237.5,52.5 Z M 249.5,182.5 C 288.308,182.492 313.808,200.826 326,237.5C 332.321,269.207 322.821,295.04 297.5,315C 267.48,333.72 238.147,332.72 209.5,312C 184.124,288.869 176.957,261.035 188,228.5C 200.125,201.863 220.625,186.53 249.5,182.5 Z"/></g>
<g><path style="opacity:0.958" fill="#fefffe" d="M 248.5,154.5 C 292.243,153.945 324.743,172.612 346,210.5C 365.256,257.226 356.756,298.059 320.5,333C 277.167,364.333 233.833,364.333 190.5,333C 156.144,300.74 146.644,262.24 162,217.5C 175.13,187.037 197.63,167.204 229.5,158C 235.938,156.61 242.272,155.443 248.5,154.5 Z M 249.5,182.5 C 220.625,186.53 200.125,201.863 188,228.5C 176.957,261.035 184.124,288.869 209.5,312C 238.147,332.72 267.48,333.72 297.5,315C 322.821,295.04 332.321,269.207 326,237.5C 313.808,200.826 288.308,182.492 249.5,182.5 Z"/></g>
</svg>
