<?xml version="1.0" encoding="UTF-8"?>
<!DOCTYPE svg PUBLIC "-//W3C//DTD SVG 1.1//EN" "http://www.w3.org/Graphics/SVG/1.1/DTD/svg11.dtd">
<svg xmlns="http://www.w3.org/2000/svg" version="1.1" width="310px" height="429px" style="shape-rendering:geometricPrecision; text-rendering:geometricPrecision; image-rendering:optimizeQuality; fill-rule:evenodd; clip-rule:evenodd" xmlns:xlink="http://www.w3.org/1999/xlink">
<g><path style="opacity:0.975" fill="#fefffe" d="M 221.5,-0.5 C 244.167,-0.5 266.833,-0.5 289.5,-0.5C 299.192,3.19244 305.859,9.85911 309.5,19.5C 309.5,149.167 309.5,278.833 309.5,408.5C 305.808,418.192 299.141,424.859 289.5,428.5C 266.833,428.5 244.167,428.5 221.5,428.5C 214.439,426.286 208.939,421.952 205,415.5C 201.038,421.981 195.538,426.314 188.5,428.5C 165.833,428.5 143.167,428.5 120.5,428.5C 113.439,426.286 107.939,421.952 104,415.5C 100.038,421.981 94.5382,426.314 87.5,428.5C 64.8333,428.5 42.1667,428.5 19.5,428.5C 9.80754,424.808 3.14088,418.141 -0.5,408.5C -0.5,340.833 -0.5,273.167 -0.5,205.5C 3.00882,195.825 9.67549,189.325 19.5,186C 42.1667,185.333 64.8333,185.333 87.5,186C 92.3803,187.355 96.547,189.855 100,193.5C 100.333,165.5 100.667,137.5 101,109.5C 104.193,99.6405 110.693,93.1405 120.5,90C 143.167,89.3333 165.833,89.3333 188.5,90C 193.38,91.3549 197.547,93.8549 201,97.5C 201.333,71.5 201.667,45.5 202,19.5C 205.378,9.6241 211.878,2.95744 221.5,-0.5 Z M 227.5,6.5 C 247.879,6.06019 268.212,6.56019 288.5,8C 296.722,10.936 301.222,16.7693 302,25.5C 302.667,151.167 302.667,276.833 302,402.5C 300.5,413.333 294.333,419.5 283.5,421C 263.123,421.94 242.79,421.606 222.5,420C 214.278,417.064 209.778,411.231 209,402.5C 208.333,276.833 208.333,151.167 209,25.5C 210.679,14.6554 216.846,8.32208 227.5,6.5 Z M 126.5,96.5 C 146.879,96.0602 167.212,96.5602 187.5,98C 195.722,100.936 200.222,106.769 201,115.5C 201.667,211.167 201.667,306.833 201,402.5C 199.5,413.333 193.333,419.5 182.5,421C 162.123,421.94 141.79,421.606 121.5,420C 113.278,417.064 108.778,411.231 108,402.5C 107.333,306.833 107.333,211.167 108,115.5C 109.679,104.655 115.846,98.3221 126.5,96.5 Z M 25.5,192.5 C 44.1696,192.333 62.8363,192.5 81.5,193C 90.2307,193.778 96.064,198.278 99,206.5C 100.649,271.797 100.982,337.13 100,402.5C 99.2217,411.231 94.7217,417.064 86.5,420C 66.2099,421.606 45.8765,421.94 25.5,421C 16.7693,420.222 10.936,415.722 8,407.5C 6.35098,342.203 6.01765,276.87 7,211.5C 8.67926,200.655 14.8459,194.322 25.5,192.5 Z"/></g>
</svg>
