<?xml version="1.0" encoding="UTF-8"?>
<!DOCTYPE svg PUBLIC "-//W3C//DTD SVG 1.1//EN" "http://www.w3.org/Graphics/SVG/1.1/DTD/svg11.dtd">
<svg xmlns="http://www.w3.org/2000/svg" version="1.1" width="512px" height="512px" style="shape-rendering:geometricPrecision; text-rendering:geometricPrecision; image-rendering:optimizeQuality; fill-rule:evenodd; clip-rule:evenodd" xmlns:xlink="http://www.w3.org/1999/xlink">
<g><path style="opacity:1" fill="#21c45d" d="M -0.5,-0.5 C 170.167,-0.5 340.833,-0.5 511.5,-0.5C 511.5,170.167 511.5,340.833 511.5,511.5C 340.833,511.5 170.167,511.5 -0.5,511.5C -0.5,340.833 -0.5,170.167 -0.5,-0.5 Z"/></g>
<g><path style="opacity:1" fill="#060806" d="M 84.5,124.5 C 92.8933,124.17 101.227,124.67 109.5,126C 120.706,130.208 128.206,138.041 132,149.5C 146.736,193.876 161.57,238.209 176.5,282.5C 191.94,240.616 207.106,198.616 222,156.5C 231.865,126.984 251.365,117.818 280.5,129C 287.524,134.367 292.691,141.2 296,149.5C 311.333,194.833 326.667,240.167 342,285.5C 357.864,240.242 373.531,194.908 389,149.5C 397.296,128.931 412.463,120.764 434.5,125C 455.01,130.832 463.177,144.332 459,165.5C 433.864,235.91 408.53,306.243 383,376.5C 378.964,389.201 370.797,398.035 358.5,403C 348.167,405 337.833,405 327.5,403C 315.203,398.035 307.036,389.201 303,376.5C 288.649,335.276 273.815,294.276 258.5,253.5C 243.374,294.042 228.541,334.709 214,375.5C 205.04,399.404 187.873,408.904 162.5,404C 148.303,400.805 138.803,392.305 134,378.5C 108.466,307.565 83.1329,236.565 58,165.5C 53.7755,143.264 62.6088,129.597 84.5,124.5 Z"/></g>
<g><path style="opacity:1" fill="#fdfdfd" d="M 86.5,128.5 C 106.56,125.221 120.393,132.888 128,151.5C 143.885,199.655 160.052,247.655 176.5,295.5C 193.285,249.981 209.785,204.314 226,158.5C 229.03,148.93 234.197,140.763 241.5,134C 266.024,122.396 283.191,129.23 293,154.5C 309.531,203.093 325.864,251.759 342,300.5C 359.544,247.865 377.878,195.532 397,143.5C 405.517,130.876 417.351,126.043 432.5,129C 449.921,133.433 457.421,144.599 455,162.5C 430.064,233.308 404.731,303.974 379,374.5C 369.055,397.886 351.889,405.719 327.5,398C 316.436,392.394 309.269,383.56 306,371.5C 290.656,327.3 274.823,283.3 258.5,239.5C 242.058,284.054 225.891,328.72 210,373.5C 202.348,395.08 187.181,403.914 164.5,400C 150.466,396.301 141.299,387.467 137,373.5C 111.8,303.565 86.7996,233.565 62,163.5C 59.3529,144.096 67.5196,132.429 86.5,128.5 Z"/></g>
</svg>
